<svg width="512" height="512" viewBox="0 0 80 100" fill="none" xmlns="http://www.w3.org/2000/svg">
    <path d="M36.0711 0.0986938H52.4125V74.9966C44.0422 76.5799 37.8802 77.2029 31.213 77.2029C11.2542 77.182 0.864746 68.2654 0.864746 51.1404C0.864746 34.6404 11.8852 23.932 28.9626 23.932C31.6127 23.932 33.6315 24.1405 36.0711 24.7653V0.0986938ZM36.6438 38.2628C34.7299 37.6377 33.1527 37.4294 31.1336 37.4294C22.8684 37.4294 18.0944 42.471 18.0944 51.3063C18.0944 59.9085 22.6583 64.6584 31.0287 64.6584C32.8371 64.6584 34.3094 64.5566 36.6438 64.244V38.2628V38.2628Z" fill="#2BA977"/>
    <path d="M79.1354 25.9428V63.4432C79.1354 76.3576 78.168 82.568 75.3287 87.9224C72.6787 93.0701 69.1876 96.3161 61.9739 99.9013L46.8103 92.7557C54.024 89.4032 57.5151 86.4409 59.7446 81.9202C62.0788 77.2973 62.8149 71.943 62.8149 57.8597V25.9431H79.1354V25.9428ZM61.1681 0.0986938H77.5095V16.7029H61.1681V0.0986938Z" fill="#2BA977"/>
</svg>
