<svg width="512" height="512" viewBox="0 0 98 100" fill="none" xmlns="http://www.w3.org/2000/svg">
    <path d="M97.1078 59.9022C96.5264 58.1365 95.0035 56.9067 93.034 56.6116C92.1053 56.4726 91.0418 56.5319 89.7832 56.792C87.5895 57.2459 85.962 57.4187 84.7742 57.4521C89.2575 49.8619 92.9029 41.2063 95.0016 33.0585C98.3952 19.8837 96.5817 13.8818 94.4626 11.167C88.8545 3.98123 80.6724 0.120977 70.8014 0.00285975C65.5356 -0.0617057 60.913 0.980837 58.5015 1.73056C56.2563 1.33329 53.8421 1.11149 51.309 1.07047C46.5607 0.99451 42.3652 2.0325 38.7804 4.16582C36.7957 3.49281 33.6105 2.54408 29.932 1.93869C21.2806 0.514446 14.3079 1.62421 9.20762 5.23722C3.03173 9.61172 0.168758 17.2122 0.69825 27.8276C0.866415 31.1979 2.74653 41.4524 5.70683 51.1775C7.40818 56.7673 9.22239 61.4092 11.0991 64.9755C13.7606 70.0325 16.6084 73.0105 19.8054 74.08C21.5973 74.6786 24.853 75.0978 28.2773 72.238C28.7113 72.7651 29.2904 73.2889 30.0589 73.7754C31.035 74.3926 32.2284 74.8969 33.4203 75.1958C37.7157 76.2726 41.7392 76.0033 45.1718 74.494C45.193 75.1062 45.2093 75.6911 45.2229 76.1962C45.2456 77.0154 45.2684 77.8187 45.2983 78.57C45.5017 83.6494 45.8463 87.5989 46.8674 90.3623C46.9235 90.5142 46.9989 90.7459 47.0784 90.9916C47.5878 92.5556 48.4396 95.1739 50.6068 97.2244C52.8509 99.3487 55.5654 100 58.0515 100C59.2984 100 60.488 99.8359 61.5315 99.6118C65.2508 98.8124 69.475 97.5947 72.5308 93.2316C75.4199 89.107 76.8243 82.8947 77.0784 73.1062C77.1114 72.8293 77.1417 72.565 77.1708 72.3132L77.2314 71.7959L77.912 71.8559L78.0874 71.8677C81.8756 72.0409 86.5078 71.2353 89.3525 69.9102C91.6004 68.8642 98.8039 65.0507 97.1078 59.9022Z" fill="black"/>
    <path d="M90.6306 60.9034C79.3665 63.2335 78.592 59.4093 78.592 59.4093C90.4847 41.7134 95.4566 19.251 91.1665 13.7534C79.4616 -1.24287 59.2004 5.84947 58.8621 6.03329L58.7534 6.05304C56.5279 5.58969 54.0376 5.31396 51.2383 5.268C46.1418 5.18444 42.2755 6.60792 39.3417 8.83886C39.3417 8.83886 3.19764 -6.0925 4.87891 27.6176C5.23645 34.7889 15.1294 81.8804 26.929 67.6566C31.2418 62.4552 35.4092 58.0576 35.4092 58.0576C37.4787 59.4362 39.9565 60.1396 42.5539 59.8871L42.7558 59.7154C42.6929 60.361 42.7217 60.9926 42.8365 61.7405C39.7966 65.1461 40.6901 65.7439 34.6134 66.9984C28.4644 68.2692 32.0766 70.5313 34.435 71.123C37.2942 71.8397 43.9087 72.8552 48.378 66.5814L48.2 67.2973C49.3907 68.254 50.227 73.5195 50.0869 78.2932C49.9467 83.0665 49.8532 86.3438 50.7914 88.9036C51.7303 91.4634 52.6654 97.2231 60.654 95.5067C67.3287 94.0723 70.7878 90.3552 71.2692 84.1546C71.6105 79.7467 72.3835 80.3984 72.432 76.4572L73.052 74.5917C73.7667 68.6163 73.1656 66.6885 77.2777 67.5852L78.2776 67.6733C81.3038 67.8111 85.2656 67.1849 87.5907 66.1013C92.597 63.7716 95.5664 59.8814 90.6298 60.9034H90.6306Z" fill="#336791"/>
    <path d="M41.4574 30.8246C40.4424 30.6829 39.5232 30.8139 39.0581 31.1672C38.7967 31.3658 38.7157 31.5959 38.6937 31.7543C38.6354 32.174 38.9285 32.6381 39.1088 32.8774C39.6186 33.5549 40.3632 34.0206 41.1003 34.1231C41.2071 34.1383 41.3135 34.1451 41.4192 34.1451C42.6482 34.1451 43.7659 33.1854 43.8644 32.4771C43.9875 31.5899 42.7032 30.9985 41.4574 30.825V30.8246ZM75.0844 30.8527C74.9874 30.1573 73.7535 29.959 72.5824 30.1223C71.4128 30.2857 70.2788 30.8151 70.3735 31.512C70.4492 32.054 71.4253 32.9792 72.5805 32.9792C72.6782 32.9792 72.7767 32.9727 72.8759 32.9586C73.647 32.8515 74.2129 32.3605 74.4818 32.0775C74.8908 31.6461 75.1279 31.1653 75.0844 30.8527Z" fill="white"/>
    <path d="M94.3789 60.6387C93.9494 59.3364 92.567 58.9175 90.2702 59.393C83.4508 60.8043 81.0086 59.8267 80.2068 59.2346C85.5074 51.1373 89.868 41.3492 92.2204 32.2169C93.3347 27.891 93.9501 23.8735 94.0005 20.5989C94.0562 17.0049 93.4457 14.3638 92.1867 12.7504C87.1107 6.24635 79.6607 2.75753 70.6426 2.66182C64.4428 2.59194 59.2047 4.18291 58.1893 4.63031C56.0509 4.09708 53.7197 3.76969 51.1817 3.72791C46.5276 3.65233 42.5045 4.7697 39.1737 7.04735C37.7269 6.50727 33.9879 5.22014 29.4152 4.48143C21.51 3.20531 15.228 4.17228 10.7451 7.35688C5.39603 11.1571 2.92657 17.9502 3.40494 27.5469C3.56591 30.7756 5.40057 40.7081 8.29574 50.2201C12.1067 62.7398 16.2495 69.8272 20.6082 71.2852C21.1183 71.4558 21.7065 71.575 22.3553 71.575C23.9453 71.575 25.8948 70.8564 27.923 68.4113C30.3968 65.4354 32.9558 62.5318 35.5968 59.704C37.3103 60.6262 39.1927 61.1412 41.1179 61.1929C41.1217 61.2434 41.1266 61.2939 41.1311 61.344C40.7997 61.7403 40.4752 62.1423 40.1577 62.5499C38.8238 64.248 38.5462 64.6015 34.2523 65.488C33.0308 65.7409 29.7868 66.4113 29.7391 68.6916C29.6876 71.1831 33.5739 72.2294 34.0167 72.3403C35.5597 72.7277 37.0463 72.9187 38.464 72.9187C41.9117 72.9187 44.9459 71.7824 47.3707 69.5837C47.2961 78.4657 47.6653 87.2177 48.7289 89.8843C49.6 92.0674 51.7278 97.4024 58.4491 97.402C59.4354 97.402 60.5209 97.2869 61.7151 97.0302C68.7299 95.5224 71.7762 92.4134 72.9545 85.5592C73.5851 81.896 74.6672 73.1489 75.1763 68.4569C76.2504 68.793 77.6332 68.9468 79.1281 68.9464C82.246 68.9464 85.8438 68.2822 88.1 67.232C90.6346 66.0516 95.2084 63.1553 94.3789 60.6387ZM77.6737 28.9332C77.6506 30.3183 77.4605 31.5758 77.259 32.8884C77.042 34.3001 76.8178 35.7597 76.7613 37.5314C76.7057 39.2557 76.9204 41.0484 77.128 42.7822C77.5476 46.2839 77.9782 49.8889 76.3114 53.4461C76.0345 52.9541 75.7878 52.4457 75.5728 51.9235C75.3656 51.4199 74.9157 50.6109 74.2926 49.4913C71.869 45.1327 66.1934 34.926 69.0988 30.7612C69.9643 29.5215 72.1606 28.2469 77.6737 28.9332ZM70.9911 5.46663C79.0713 5.64551 85.4631 8.67668 89.9884 14.4754C93.4593 18.9232 89.6373 39.1615 78.5729 56.6212C78.4616 56.4794 78.3498 56.3379 78.2373 56.197L78.0972 56.0215C80.9564 51.2866 80.3973 46.6018 79.8997 42.4483C79.6951 40.7438 79.502 39.1338 79.5512 37.6215C79.602 36.0187 79.8133 34.6438 80.0178 33.3145C80.2689 31.6765 80.5246 29.9814 80.4541 27.9833C80.5068 27.7737 80.528 27.526 80.5003 27.2321C80.3204 25.316 78.1388 19.5814 73.6923 14.3911C71.26 11.5521 67.713 8.37512 62.8699 6.2323C64.953 5.79933 67.8016 5.39561 70.9911 5.46663ZM25.7766 66.6217C23.542 69.316 21.9989 68.7994 21.4914 68.6301C18.1849 67.5241 14.3482 60.5161 10.9656 49.4032C8.03857 39.7874 6.32813 30.1182 6.19254 27.4068C5.76531 18.8317 7.83821 12.8556 12.3541 9.64402C19.7033 4.41801 31.7862 7.54602 36.6414 9.13244C36.5717 9.20156 36.499 9.26613 36.4301 9.33639C28.4627 17.4048 28.6517 31.19 28.6714 32.0327C28.6706 32.3578 28.6979 32.8182 28.735 33.4513C28.8721 35.7699 29.1274 40.0852 28.4456 44.9721C27.8124 49.5133 29.2084 53.9581 32.2752 57.167C32.5899 57.4957 32.9207 57.8085 33.2664 58.1043C31.9014 59.5704 28.9346 62.8123 25.7766 66.6217ZM34.2905 55.2304C31.8188 52.644 30.6962 49.0465 31.2101 45.3595C31.9298 40.1972 31.6643 35.7012 31.5215 33.2857C31.5014 32.9477 31.4836 32.6514 31.4734 32.4178C32.6373 31.3829 38.0311 28.485 41.8776 29.3688C43.6328 29.7718 44.7024 30.9704 45.147 33.032C47.4483 43.7054 45.4515 48.154 43.8472 51.729C43.5165 52.4655 43.204 53.1616 42.9374 53.8817L42.7306 54.4385C42.2072 55.8461 41.7201 57.1548 41.4182 58.3975C38.7905 58.3899 36.2343 57.2642 34.2905 55.23V55.2304ZM34.6939 69.6247C33.9265 69.4326 33.2365 69.0987 32.8316 68.8219C33.1698 68.6623 33.7716 68.4451 34.8155 68.2294C39.8669 67.1868 40.6471 66.4508 42.3507 64.2818C42.7412 63.7842 43.184 63.2206 43.7972 62.5339L43.7979 62.5332C44.7111 61.5077 45.1288 61.6817 45.8863 61.9969C46.5003 62.2514 47.0983 63.0231 47.3407 63.8723C47.4555 64.2734 47.5843 65.0345 47.1627 65.627C43.604 70.6236 38.4181 70.5594 34.6939 69.6247ZM61.1303 94.2934C54.9506 95.6212 52.7626 92.4593 51.3207 88.8448C50.3901 86.5113 49.9325 75.9886 50.2571 64.368C50.2613 64.2134 50.2393 64.0641 50.1969 63.9236C50.159 63.6461 50.1012 63.3717 50.0242 63.1025C49.5417 61.4116 48.3656 59.9973 46.9548 59.4108C46.3942 59.178 45.3656 58.7508 44.1293 59.0679C44.3929 57.9786 44.8501 56.7485 45.3459 55.4165L45.5538 54.8563C45.7879 54.2247 46.0818 53.5703 46.3924 52.8776C48.0714 49.1373 50.3707 44.0142 47.8752 32.4406C46.9404 28.1056 43.8187 25.9886 39.0866 26.4805C36.2498 26.7748 33.6542 27.9226 32.3597 28.5807C32.0813 28.722 31.8267 28.8588 31.5889 28.9917C31.9502 24.624 33.3152 16.4614 38.4216 11.2969C41.6368 8.04583 45.9185 6.44005 51.1354 6.52664C61.4147 6.69527 68.0065 11.9851 71.7266 16.3934C74.9323 20.1918 76.6682 24.0182 77.3609 26.0821C72.1512 25.5507 68.608 26.5819 66.8119 29.1569C62.9044 34.7582 68.9496 45.6295 71.855 50.8544C72.3879 51.8118 72.8477 52.6394 72.9924 52.9911C73.9385 55.2904 75.1634 56.8256 76.0576 57.946C76.3318 58.2893 76.5977 58.6224 76.8 58.9133C75.2221 59.3694 72.3879 60.4234 72.6462 65.6916C72.4379 68.3349 70.9566 80.711 70.204 85.0837C69.2106 90.8604 67.0907 93.0119 61.1303 94.2938V94.2934ZM86.9247 64.6935C85.3112 65.4443 82.6111 66.0075 80.0462 66.1287C77.2132 66.2616 75.7709 65.8104 75.4315 65.5328C75.2725 62.2498 76.4909 61.9069 77.7805 61.5438C77.9832 61.4868 78.1809 61.431 78.3718 61.3641C78.4903 61.461 78.6202 61.5571 78.7626 61.6513C81.0397 63.1583 85.101 63.3209 90.8349 62.134L90.8978 62.1215C90.1244 62.8465 88.801 63.8195 86.9247 64.6935Z" fill="white"/>
</svg>
