<svg width="512" height="512" viewBox="0 0 100 100" fill="none" xmlns="http://www.w3.org/2000/svg">
	<path d="M0.951416 35.0333C0.951416 35.0333 -1.48421 33.2776 1.43854 30.9333L8.24814 24.8442C8.24814 24.8442 10.1966 22.7942 12.2568 24.5804L75.0959 72.1563V94.97C75.0959 94.97 75.0655 98.5524 70.4682 98.1566L0.951416 35.0333Z" fill="#2489CA"/>
	<path d="M17.1483 49.7386L0.951379 64.464C0.951379 64.464 -0.712967 65.7021 0.951379 67.9145L8.47138 74.7545C8.47138 74.7545 10.2575 76.6726 12.8961 74.4907L30.0673 61.4702L17.1483 49.7386Z" fill="#1070B3"/>
	<path d="M45.5844 49.8603L75.2889 27.1785L75.0961 4.48653C75.0961 4.48653 73.8275 -0.465925 69.5956 2.11179L30.0674 38.0881L45.5844 49.8603Z" fill="#0877B9"/>
	<path d="M70.4685 98.1871C72.1937 99.953 74.2843 99.3745 74.2843 99.3745L97.4329 87.9677C100.396 85.9481 99.9801 83.4414 99.9801 83.4414V15.325C99.9801 12.3312 96.9153 11.2961 96.9153 11.2961L76.8518 1.62457C72.4677 -1.08506 69.5957 2.1117 69.5957 2.1117C69.5957 2.1117 73.2897 -0.547196 75.0962 4.48644V94.554C75.0962 95.1731 74.9642 95.782 74.7004 96.33C74.1726 97.3956 73.0259 98.3901 70.2756 97.974L70.4685 98.1871Z" fill="#3C99D4"/>
</svg>
