<?xml version="1.0" encoding="UTF-8"?>
<svg width="700pt" height="700pt" version="1.1" viewBox="0 0 700 700" xmlns="http://www.w3.org/2000/svg" xmlns:xlink="http://www.w3.org/1999/xlink">
 <defs>
  <symbol id="e" overflow="visible">
   <path d="m63.375-3.7812c-3.2734 1.6875-6.6797 2.9648-10.219 3.8281-3.543 0.86328-7.2344 1.2969-11.078 1.2969-11.492 0-20.59-3.207-27.297-9.625-6.7109-6.4258-10.062-15.133-10.062-26.125 0-11.031 3.3516-19.754 10.062-26.172 6.707-6.4141 15.805-9.625 27.297-9.625 3.8438 0 7.5352 0.43359 11.078 1.2969 3.5391 0.85547 6.9453 2.1328 10.219 3.8281v14.266c-3.3047-2.2383-6.5547-3.8789-9.75-4.9219-3.1992-1.0508-6.5703-1.5781-10.109-1.5781-6.3438 0-11.336 2.0312-14.969 6.0938-3.6367 4.0625-5.4531 9.668-5.4531 16.812 0 7.1172 1.8164 12.703 5.4531 16.766 3.6328 4.0625 8.625 6.0938 14.969 6.0938 3.5391 0 6.9102-0.51953 10.109-1.5625 3.1953-1.0508 6.4453-2.7031 9.75-4.9531z"/>
  </symbol>
  <symbol id="d" overflow="visible">
   <path d="m26-66.422v14.688h17.047v11.828h-17.047v21.938c0 2.4062 0.47656 4.0312 1.4375 4.875 0.95703 0.84375 2.8477 1.2656 5.6719 1.2656h8.5v11.828h-14.172c-6.5312 0-11.164-1.3594-13.891-4.0781-2.7188-2.7266-4.0781-7.3594-4.0781-13.891v-21.938h-8.2188v-11.828h8.2188v-14.688z"/>
  </symbol>
  <symbol id="c" overflow="visible">
   <path d="m43.141-44.156v-27.719h16.625v71.875h-16.625v-7.4844c-2.2812 3.0547-4.793 5.2891-7.5312 6.7031-2.7422 1.4141-5.9141 2.125-9.5156 2.125-6.375 0-11.609-2.5312-15.703-7.5938-4.0938-5.0703-6.1406-11.594-6.1406-19.562 0-7.9766 2.0469-14.5 6.1406-19.562 4.0938-5.0703 9.3281-7.6094 15.703-7.6094 3.5703 0 6.7344 0.71875 9.4844 2.1562 2.7578 1.4297 5.2812 3.6523 7.5625 6.6719zm-10.906 33.484c3.5391 0 6.2422-1.2891 8.1094-3.875 1.8633-2.582 2.7969-6.3359 2.7969-11.266 0-4.9258-0.93359-8.6797-2.7969-11.266-1.8672-2.5938-4.5703-3.8906-8.1094-3.8906-3.5117 0-6.1992 1.2969-8.0625 3.8906-1.8555 2.5859-2.7812 6.3398-2.7812 11.266 0 4.9297 0.92578 8.6836 2.7812 11.266 1.8633 2.5859 4.5508 3.875 8.0625 3.875z"/>
  </symbol>
  <symbol id="b" overflow="visible">
   <path d="m35.469-10.672c3.5391 0 6.2422-1.2891 8.1094-3.875 1.8633-2.582 2.7969-6.3359 2.7969-11.266 0-4.9258-0.93359-8.6797-2.7969-11.266-1.8672-2.5938-4.5703-3.8906-8.1094-3.8906-3.543 0-6.2617 1.3047-8.1562 3.9062-1.8867 2.6055-2.8281 6.3555-2.8281 11.25 0 4.8984 0.94141 8.6484 2.8281 11.25 1.8945 2.5938 4.6133 3.8906 8.1562 3.8906zm-10.984-33.484c2.2695-3.0195 4.7891-5.2422 7.5625-6.6719 2.7812-1.4375 5.9688-2.1562 9.5625-2.1562 6.375 0 11.609 2.5391 15.703 7.6094 4.1016 5.0625 6.1562 11.586 6.1562 19.562 0 7.9688-2.0547 14.492-6.1562 19.562-4.0938 5.0625-9.3281 7.5938-15.703 7.5938-3.5938 0-6.7812-0.71484-9.5625-2.1406-2.7734-1.4375-5.293-3.6641-7.5625-6.6875v7.4844h-16.547v-71.875h16.547z"/>
  </symbol>
  <symbol id="a" overflow="visible">
   <path d="m50.531-12.562h-27.812l-4.375 12.562h-17.875l25.531-68.953h21.203l25.547 68.953h-17.875zm-23.375-12.797h18.891l-9.4219-27.438z"/>
  </symbol>
 </defs>
 <g>
  <path fill="#fca311" d="m168.02 156.74-163.08 163.06 154.15 154.15 53.504-53.523-100.61-100.63 109.54-109.56z" fill-rule="evenodd"/>
  <path fill="#fca311" d="m530.04 156.74-53.5 53.504 109.54 109.56-100.61 100.63 53.5 53.523 154.15-154.15z" fill-rule="evenodd"/>
  <path fill="#fca311" d="m239.48 439.09 68.336 32.523 135.36-284.43-68.336-32.523z" fill-rule="evenodd"/>
 </g>
</svg>
